solid OpenSCAD_Model
  facet normal -1 0 0
    outer loop
      vertex -23 6.5 -2.33147e-15
      vertex -23 -1.5 1.22125e-15
      vertex -23 6.5 8
    endloop
  endfacet
  facet normal -1 0 0
    outer loop
      vertex -23 6.5 8
      vertex -23 -1.5 1.22125e-15
      vertex -23 -1.5 8
    endloop
  endfacet
  facet normal 0 -4.44089e-16 -1
    outer loop
      vertex 24 2.5 -5.55112e-16
      vertex 27 6.5 -2.33147e-15
      vertex 27 2.5 -5.55112e-16
    endloop
  endfacet
  facet normal 0 -4.44089e-16 -1
    outer loop
      vertex 16.7164 2.15859 -4.03496e-16
      vertex 27 6.5 -2.33147e-15
      vertex 24 2.5 -5.55112e-16
    endloop
  endfacet
  facet normal 0 -4.44089e-16 -1
    outer loop
      vertex 15 0.75 2.22045e-16
      vertex -23 -1.5 1.22125e-15
      vertex -15 0.75 2.22045e-16
    endloop
  endfacet
  facet normal 0 -4.44089e-16 -1
    outer loop
      vertex -23 -1.5 1.22125e-15
      vertex 24 -1.5 1.22125e-15
      vertex 27 -1.5 1.22125e-15
    endloop
  endfacet
  facet normal 0 -4.44089e-16 -1
    outer loop
      vertex -23 6.5 -2.33147e-15
      vertex -16.7164 2.84141 -7.06727e-16
      vertex -23 -1.5 1.22125e-15
    endloop
  endfacet
  facet normal 0 -4.44089e-16 -1
    outer loop
      vertex -16.7164 2.84141 -7.06727e-16
      vertex -16.75 2.5 -5.55112e-16
      vertex -23 -1.5 1.22125e-15
    endloop
  endfacet
  facet normal 0 -4.44089e-16 -1
    outer loop
      vertex -16.75 2.5 -5.55112e-16
      vertex -16.7164 2.15859 -4.03496e-16
      vertex -23 -1.5 1.22125e-15
    endloop
  endfacet
  facet normal 0 -4.44089e-16 -1
    outer loop
      vertex -16.7164 2.15859 -4.03496e-16
      vertex -16.6168 1.8303 -2.57707e-16
      vertex -23 -1.5 1.22125e-15
    endloop
  endfacet
  facet normal 0 -4.44089e-16 -1
    outer loop
      vertex -16.6168 1.8303 -2.57707e-16
      vertex -16.4551 1.52775 -1.23347e-16
      vertex -23 -1.5 1.22125e-15
    endloop
  endfacet
  facet normal 0 -4.44089e-16 -1
    outer loop
      vertex -16.4551 1.52775 -1.23347e-16
      vertex -16.2374 1.26256 -5.57909e-18
      vertex -23 -1.5 1.22125e-15
    endloop
  endfacet
  facet normal 0 -4.44089e-16 -1
    outer loop
      vertex -16.2374 1.26256 -5.57909e-18
      vertex -15.9722 1.04493 9.10703e-17
      vertex -23 -1.5 1.22125e-15
    endloop
  endfacet
  facet normal 0 -4.44089e-16 -1
    outer loop
      vertex -15.9722 1.04493 9.10703e-17
      vertex -15.6697 0.883211 1.62887e-16
      vertex -23 -1.5 1.22125e-15
    endloop
  endfacet
  facet normal 0 -4.44089e-16 -1
    outer loop
      vertex -15.6697 0.883211 1.62887e-16
      vertex -15.3414 0.783626 2.07112e-16
      vertex -23 -1.5 1.22125e-15
    endloop
  endfacet
  facet normal 0 -4.44089e-16 -1
    outer loop
      vertex -15.3414 0.783626 2.07112e-16
      vertex -15 0.75 2.22045e-16
      vertex -23 -1.5 1.22125e-15
    endloop
  endfacet
  facet normal 0 -4.44089e-16 -1
    outer loop
      vertex -23 -1.5 1.22125e-15
      vertex 15 0.75 2.22045e-16
      vertex 24 -1.5 1.22125e-15
    endloop
  endfacet
  facet normal 0 -4.44089e-16 -1
    outer loop
      vertex 15 0.75 2.22045e-16
      vertex 15.3414 0.783626 2.07112e-16
      vertex 24 -1.5 1.22125e-15
    endloop
  endfacet
  facet normal 0 -4.44089e-16 -1
    outer loop
      vertex -15 4.25 -1.33227e-15
      vertex 27 6.5 -2.33147e-15
      vertex 15 4.25 -1.33227e-15
    endloop
  endfacet
  facet normal 0 -4.44089e-16 -1
    outer loop
      vertex 16.75 2.5 -5.55112e-16
      vertex 27 6.5 -2.33147e-15
      vertex 16.7164 2.15859 -4.03496e-16
    endloop
  endfacet
  facet normal 0 -4.44089e-16 -1
    outer loop
      vertex 16.7164 2.84141 -7.06727e-16
      vertex 27 6.5 -2.33147e-15
      vertex 16.75 2.5 -5.55112e-16
    endloop
  endfacet
  facet normal 0 -4.44089e-16 -1
    outer loop
      vertex 16.6168 3.1697 -8.52516e-16
      vertex 27 6.5 -2.33147e-15
      vertex 16.7164 2.84141 -7.06727e-16
    endloop
  endfacet
  facet normal 0 -4.44089e-16 -1
    outer loop
      vertex 16.4551 3.47225 -9.86876e-16
      vertex 27 6.5 -2.33147e-15
      vertex 16.6168 3.1697 -8.52516e-16
    endloop
  endfacet
  facet normal 0 -4.44089e-16 -1
    outer loop
      vertex 16.2374 3.73744 -1.10464e-15
      vertex 27 6.5 -2.33147e-15
      vertex 16.4551 3.47225 -9.86876e-16
    endloop
  endfacet
  facet normal 0 -4.44089e-16 -1
    outer loop
      vertex 15.9722 3.95507 -1.20129e-15
      vertex 27 6.5 -2.33147e-15
      vertex 16.2374 3.73744 -1.10464e-15
    endloop
  endfacet
  facet normal 0 -4.44089e-16 -1
    outer loop
      vertex 15.6697 4.11679 -1.27311e-15
      vertex 27 6.5 -2.33147e-15
      vertex 15.9722 3.95507 -1.20129e-15
    endloop
  endfacet
  facet normal 0 -4.44089e-16 -1
    outer loop
      vertex 15.3414 4.21637 -1.31733e-15
      vertex 27 6.5 -2.33147e-15
      vertex 15.6697 4.11679 -1.27311e-15
    endloop
  endfacet
  facet normal 0 -4.44089e-16 -1
    outer loop
      vertex 15 4.25 -1.33227e-15
      vertex 27 6.5 -2.33147e-15
      vertex 15.3414 4.21637 -1.31733e-15
    endloop
  endfacet
  facet normal 0 -4.44089e-16 -1
    outer loop
      vertex -23 6.5 -2.33147e-15
      vertex 27 6.5 -2.33147e-15
      vertex -15 4.25 -1.33227e-15
    endloop
  endfacet
  facet normal 0 -4.44089e-16 -1
    outer loop
      vertex -23 6.5 -2.33147e-15
      vertex -15 4.25 -1.33227e-15
      vertex -15.3414 4.21637 -1.31733e-15
    endloop
  endfacet
  facet normal 0 -4.44089e-16 -1
    outer loop
      vertex -23 6.5 -2.33147e-15
      vertex -15.3414 4.21637 -1.31733e-15
      vertex -15.6697 4.11679 -1.27311e-15
    endloop
  endfacet
  facet normal 0 -4.44089e-16 -1
    outer loop
      vertex -23 6.5 -2.33147e-15
      vertex -15.6697 4.11679 -1.27311e-15
      vertex -15.9722 3.95507 -1.20129e-15
    endloop
  endfacet
  facet normal 0 -4.44089e-16 -1
    outer loop
      vertex -23 6.5 -2.33147e-15
      vertex -15.9722 3.95507 -1.20129e-15
      vertex -16.2374 3.73744 -1.10464e-15
    endloop
  endfacet
  facet normal 0 -4.44089e-16 -1
    outer loop
      vertex -23 6.5 -2.33147e-15
      vertex -16.2374 3.73744 -1.10464e-15
      vertex -16.4551 3.47225 -9.86876e-16
    endloop
  endfacet
  facet normal 0 -4.44089e-16 -1
    outer loop
      vertex -23 6.5 -2.33147e-15
      vertex -16.4551 3.47225 -9.86876e-16
      vertex -16.6168 3.1697 -8.52516e-16
    endloop
  endfacet
  facet normal 0 -4.44089e-16 -1
    outer loop
      vertex -23 6.5 -2.33147e-15
      vertex -16.6168 3.1697 -8.52516e-16
      vertex -16.7164 2.84141 -7.06727e-16
    endloop
  endfacet
  facet normal 0 -4.44089e-16 -1
    outer loop
      vertex 24 -1.5 1.22125e-15
      vertex 15.3414 0.783626 2.07112e-16
      vertex 15.6697 0.883211 1.62887e-16
    endloop
  endfacet
  facet normal 0 -4.44089e-16 -1
    outer loop
      vertex 24 -1.5 1.22125e-15
      vertex 15.6697 0.883211 1.62887e-16
      vertex 15.9722 1.04493 9.10703e-17
    endloop
  endfacet
  facet normal 0 -4.44089e-16 -1
    outer loop
      vertex 24 -1.5 1.22125e-15
      vertex 15.9722 1.04493 9.10703e-17
      vertex 16.2374 1.26256 -5.57909e-18
    endloop
  endfacet
  facet normal 0 -4.44089e-16 -1
    outer loop
      vertex 24 -1.5 1.22125e-15
      vertex 16.2374 1.26256 -5.57909e-18
      vertex 16.4551 1.52775 -1.23347e-16
    endloop
  endfacet
  facet normal 0 -4.44089e-16 -1
    outer loop
      vertex 24 -1.5 1.22125e-15
      vertex 16.4551 1.52775 -1.23347e-16
      vertex 16.6168 1.8303 -2.57707e-16
    endloop
  endfacet
  facet normal 0 -4.44089e-16 -1
    outer loop
      vertex 24 -1.5 1.22125e-15
      vertex 16.6168 1.8303 -2.57707e-16
      vertex 24 2.5 -5.55112e-16
    endloop
  endfacet
  facet normal 0 -4.44089e-16 -1
    outer loop
      vertex 16.7164 2.15859 -4.03496e-16
      vertex 24 2.5 -5.55112e-16
      vertex 16.6168 1.8303 -2.57707e-16
    endloop
  endfacet
  facet normal 0 1 -4.44089e-16
    outer loop
      vertex 27 6.5 -1.44329e-15
      vertex 27 6.5 -2.33147e-15
      vertex -11.6804 6.5 -1.44329e-15
    endloop
  endfacet
  facet normal 0 1 -4.44089e-16
    outer loop
      vertex 24 6.5 5
      vertex -23 6.5 8
      vertex 24 6.5 8
    endloop
  endfacet
  facet normal 0 1 -4.44089e-16
    outer loop
      vertex -23 6.5 -2.33147e-15
      vertex -23 6.5 8
      vertex -11.6804 6.5 5
    endloop
  endfacet
  facet normal 0 1 -4.44089e-16
    outer loop
      vertex -23 6.5 -2.33147e-15
      vertex -11.6804 6.5 5
      vertex -11.6804 6.5 -1.44329e-15
    endloop
  endfacet
  facet normal 0 1 -4.44089e-16
    outer loop
      vertex -23 6.5 -2.33147e-15
      vertex -11.6804 6.5 -1.44329e-15
      vertex 27 6.5 -2.33147e-15
    endloop
  endfacet
  facet normal 0 1 -4.44089e-16
    outer loop
      vertex -11.6804 6.5 5
      vertex -23 6.5 8
      vertex 24 6.5 5
    endloop
  endfacet
  facet normal 0 4.44089e-16 1
    outer loop
      vertex -16.75 2.5 8
      vertex -23 6.5 8
      vertex -23 -1.5 8
    endloop
  endfacet
  facet normal 0 4.44089e-16 1
    outer loop
      vertex -16.7164 2.15859 8
      vertex -16.75 2.5 8
      vertex -23 -1.5 8
    endloop
  endfacet
  facet normal 0 4.44089e-16 1
    outer loop
      vertex -16.7164 2.84141 8
      vertex -23 6.5 8
      vertex -16.75 2.5 8
    endloop
  endfacet
  facet normal 0 4.44089e-16 1
    outer loop
      vertex -16.6168 3.1697 8
      vertex -23 6.5 8
      vertex -16.7164 2.84141 8
    endloop
  endfacet
  facet normal 0 4.44089e-16 1
    outer loop
      vertex -16.4551 3.47225 8
      vertex -23 6.5 8
      vertex -16.6168 3.1697 8
    endloop
  endfacet
  facet normal 0 4.44089e-16 1
    outer loop
      vertex -16.2374 3.73744 8
      vertex -23 6.5 8
      vertex -16.4551 3.47225 8
    endloop
  endfacet
  facet normal 0 4.44089e-16 1
    outer loop
      vertex -15.9722 3.95507 8
      vertex -23 6.5 8
      vertex -16.2374 3.73744 8
    endloop
  endfacet
  facet normal 0 4.44089e-16 1
    outer loop
      vertex -15.6697 4.11679 8
      vertex -23 6.5 8
      vertex -15.9722 3.95507 8
    endloop
  endfacet
  facet normal 0 4.44089e-16 1
    outer loop
      vertex -15.3414 4.21637 8
      vertex -23 6.5 8
      vertex -15.6697 4.11679 8
    endloop
  endfacet
  facet normal 0 4.44089e-16 1
    outer loop
      vertex -15 4.25 8
      vertex -23 6.5 8
      vertex -15.3414 4.21637 8
    endloop
  endfacet
  facet normal 0 4.44089e-16 1
    outer loop
      vertex 24 6.5 8
      vertex -23 6.5 8
      vertex -15 4.25 8
    endloop
  endfacet
  facet normal 0 4.44089e-16 1
    outer loop
      vertex 15.3414 4.21637 8
      vertex 24 6.5 8
      vertex 15 4.25 8
    endloop
  endfacet
  facet normal 0 4.44089e-16 1
    outer loop
      vertex 15.6697 4.11679 8
      vertex 24 6.5 8
      vertex 15.3414 4.21637 8
    endloop
  endfacet
  facet normal 0 4.44089e-16 1
    outer loop
      vertex 16.4551 3.47225 8
      vertex 16.6168 3.1697 8
      vertex 24 -1.5 8
    endloop
  endfacet
  facet normal 0 4.44089e-16 1
    outer loop
      vertex 15.9722 3.95507 8
      vertex 24 6.5 8
      vertex 15.6697 4.11679 8
    endloop
  endfacet
  facet normal 0 4.44089e-16 1
    outer loop
      vertex 24 -1.5 8
      vertex 24 6.5 8
      vertex 15.9722 3.95507 8
    endloop
  endfacet
  facet normal 0 4.44089e-16 1
    outer loop
      vertex 24 -1.5 8
      vertex 15.9722 3.95507 8
      vertex 16.2374 3.73744 8
    endloop
  endfacet
  facet normal 0 4.44089e-16 1
    outer loop
      vertex 24 -1.5 8
      vertex 16.6168 3.1697 8
      vertex 16.7164 2.84141 8
    endloop
  endfacet
  facet normal 0 4.44089e-16 1
    outer loop
      vertex 24 -1.5 8
      vertex 16.7164 2.84141 8
      vertex 16.75 2.5 8
    endloop
  endfacet
  facet normal 0 4.44089e-16 1
    outer loop
      vertex 24 -1.5 8
      vertex 16.75 2.5 8
      vertex 16.7164 2.15859 8
    endloop
  endfacet
  facet normal 0 4.44089e-16 1
    outer loop
      vertex 24 -1.5 8
      vertex 16.7164 2.15859 8
      vertex 16.6168 1.8303 8
    endloop
  endfacet
  facet normal 0 4.44089e-16 1
    outer loop
      vertex 24 -1.5 8
      vertex 16.6168 1.8303 8
      vertex 16.4551 1.52775 8
    endloop
  endfacet
  facet normal 0 4.44089e-16 1
    outer loop
      vertex 24 -1.5 8
      vertex 16.4551 1.52775 8
      vertex 16.2374 1.26256 8
    endloop
  endfacet
  facet normal 0 4.44089e-16 1
    outer loop
      vertex 24 -1.5 8
      vertex 16.2374 1.26256 8
      vertex 15.9722 1.04493 8
    endloop
  endfacet
  facet normal 0 4.44089e-16 1
    outer loop
      vertex 24 -1.5 8
      vertex 15.9722 1.04493 8
      vertex 15.6697 0.883211 8
    endloop
  endfacet
  facet normal 0 4.44089e-16 1
    outer loop
      vertex 24 -1.5 8
      vertex 15.6697 0.883211 8
      vertex 15.3414 0.783626 8
    endloop
  endfacet
  facet normal 0 4.44089e-16 1
    outer loop
      vertex 24 -1.5 8
      vertex 15 0.75 8
      vertex -23 -1.5 8
    endloop
  endfacet
  facet normal 0 4.44089e-16 1
    outer loop
      vertex 24 -1.5 8
      vertex 15.3414 0.783626 8
      vertex 15 0.75 8
    endloop
  endfacet
  facet normal 0 4.44089e-16 1
    outer loop
      vertex 16.2374 3.73744 8
      vertex 16.4551 3.47225 8
      vertex 24 -1.5 8
    endloop
  endfacet
  facet normal 0 4.44089e-16 1
    outer loop
      vertex -15 0.75 8
      vertex -15.3414 0.783626 8
      vertex -23 -1.5 8
    endloop
  endfacet
  facet normal 0 4.44089e-16 1
    outer loop
      vertex -15.3414 0.783626 8
      vertex -15.6697 0.883211 8
      vertex -23 -1.5 8
    endloop
  endfacet
  facet normal 0 4.44089e-16 1
    outer loop
      vertex -15.6697 0.883211 8
      vertex -15.9722 1.04493 8
      vertex -23 -1.5 8
    endloop
  endfacet
  facet normal 0 4.44089e-16 1
    outer loop
      vertex -15.9722 1.04493 8
      vertex -16.2374 1.26256 8
      vertex -23 -1.5 8
    endloop
  endfacet
  facet normal 0 4.44089e-16 1
    outer loop
      vertex -16.2374 1.26256 8
      vertex -16.4551 1.52775 8
      vertex -23 -1.5 8
    endloop
  endfacet
  facet normal 0 4.44089e-16 1
    outer loop
      vertex -16.4551 1.52775 8
      vertex -16.6168 1.8303 8
      vertex -23 -1.5 8
    endloop
  endfacet
  facet normal 0 4.44089e-16 1
    outer loop
      vertex -16.6168 1.8303 8
      vertex -16.7164 2.15859 8
      vertex -23 -1.5 8
    endloop
  endfacet
  facet normal 0 4.44089e-16 1
    outer loop
      vertex -15 4.25 8
      vertex 15 4.25 8
      vertex 24 6.5 8
    endloop
  endfacet
  facet normal 0 4.44089e-16 1
    outer loop
      vertex 15 0.75 8
      vertex -15 0.75 8
      vertex -23 -1.5 8
    endloop
  endfacet
  facet normal 0 -1 4.44089e-16
    outer loop
      vertex -23 -1.5 8
      vertex -23 -1.5 1.22125e-15
      vertex 27 -1.5 1.22125e-15
    endloop
  endfacet
  facet normal 0 -1 4.44089e-16
    outer loop
      vertex 24 -1.5 8
      vertex -23 -1.5 8
      vertex 27 -1.5 1.22125e-15
    endloop
  endfacet
  facet normal 0 -1 4.44089e-16
    outer loop
      vertex 27 -1.5 8
      vertex 24 -1.5 8
      vertex 27 -1.5 1.22125e-15
    endloop
  endfacet
  facet normal 0 -1 2.22045e-16
    outer loop
      vertex 24 -1.5 1.22125e-15
      vertex 24 -1.5 3.33067e-16
      vertex 33.2 -1.5 3.33067e-16
    endloop
  endfacet
  facet normal 0 -1 2.22045e-16
    outer loop
      vertex 27 -1.5 1.22125e-15
      vertex 24 -1.5 1.22125e-15
      vertex 33.2 -1.5 3.33067e-16
    endloop
  endfacet
  facet normal 0 -1 2.22045e-16
    outer loop
      vertex 24 -1.5 21
      vertex 24 -1.5 8
      vertex 33.2 -1.5 21
    endloop
  endfacet
  facet normal 0 -1 2.22045e-16
    outer loop
      vertex 24 -1.5 8
      vertex 27 -1.5 8
      vertex 33.2 -1.5 21
    endloop
  endfacet
  facet normal 0 -1 2.22045e-16
    outer loop
      vertex 33.2 -1.5 21
      vertex 27 -1.5 1.22125e-15
      vertex 33.2 -1.5 3.33067e-16
    endloop
  endfacet
  facet normal 0 -1 2.22045e-16
    outer loop
      vertex 27 -1.5 8
      vertex 27 -1.5 1.22125e-15
      vertex 33.2 -1.5 21
    endloop
  endfacet
  facet normal -1 0 0
    outer loop
      vertex 24 -1.5 1.22125e-15
      vertex 24 2.5 -5.55112e-16
      vertex 24 -1.5 3.33067e-16
    endloop
  endfacet
  facet normal 0 -2.22045e-16 -1
    outer loop
      vertex 24 2.5 -5.55112e-16
      vertex 27 2.5 -5.55112e-16
      vertex 24 -1.5 3.33067e-16
    endloop
  endfacet
  facet normal 0 -2.22045e-16 -1
    outer loop
      vertex 24 -1.5 3.33067e-16
      vertex 27 2.5 -5.55112e-16
      vertex 27 1.5 -3.33067e-16
    endloop
  endfacet
  facet normal 0 -2.22045e-16 -1
    outer loop
      vertex 24 -1.5 3.33067e-16
      vertex 27 1.5 -3.33067e-16
      vertex 30.2 1.5 -3.33067e-16
    endloop
  endfacet
  facet normal 0 -2.22045e-16 -1
    outer loop
      vertex 30.2 1.5 -3.33067e-16
      vertex 30.2 5.5 -1.22125e-15
      vertex 33.2 5.5 -1.22125e-15
    endloop
  endfacet
  facet normal 0 -2.22045e-16 -1
    outer loop
      vertex 30.2 1.5 -3.33067e-16
      vertex 33.2 5.5 -1.22125e-15
      vertex 33.2 -1.5 3.33067e-16
    endloop
  endfacet
  facet normal 0 -2.22045e-16 -1
    outer loop
      vertex 30.2 1.5 -3.33067e-16
      vertex 33.2 -1.5 3.33067e-16
      vertex 24 -1.5 3.33067e-16
    endloop
  endfacet
  facet normal 1 0 0
    outer loop
      vertex 27 2.5 -5.55112e-16
      vertex 27 6.5 -2.33147e-15
      vertex 27 6.5 -1.44329e-15
    endloop
  endfacet
  facet normal 1 0 0
    outer loop
      vertex 27 11.0317 8.83266
      vertex 27 2.5 -5.55112e-16
      vertex 27 6.5 -1.44329e-15
    endloop
  endfacet
  facet normal 1 0 0
    outer loop
      vertex 27 19.5 -4.32987e-15
      vertex 27 19.5 21
      vertex 27 6.5 -1.44329e-15
    endloop
  endfacet
  facet normal 1 0 0
    outer loop
      vertex 27 9.2865 9.55553
      vertex 27 1.5 21
      vertex 27 2.5 -5.55112e-16
    endloop
  endfacet
  facet normal 1 0 0
    outer loop
      vertex 27 1.5 21
      vertex 27 1.5 -3.33067e-16
      vertex 27 2.5 -5.55112e-16
    endloop
  endfacet
  facet normal 1 0 0
    outer loop
      vertex 27 11.3506 8.9294
      vertex 27 11.0317 8.83266
      vertex 27 6.5 -1.44329e-15
    endloop
  endfacet
  facet normal 1 0 0
    outer loop
      vertex 27 10.7 8.8
      vertex 27 2.5 -5.55112e-16
      vertex 27 11.0317 8.83266
    endloop
  endfacet
  facet normal 1 0 0
    outer loop
      vertex 27 10.3683 8.83266
      vertex 27 2.5 -5.55112e-16
      vertex 27 10.7 8.8
    endloop
  endfacet
  facet normal 1 0 0
    outer loop
      vertex 27 10.0494 8.9294
      vertex 27 2.5 -5.55112e-16
      vertex 27 10.3683 8.83266
    endloop
  endfacet
  facet normal 1 0 0
    outer loop
      vertex 27 10.7 12.2
      vertex 27 11.0317 12.1673
      vertex 27 19.5 21
    endloop
  endfacet
  facet normal 1 0 0
    outer loop
      vertex 27 9.75553 9.0865
      vertex 27 9.49792 9.29792
      vertex 27 2.5 -5.55112e-16
    endloop
  endfacet
  facet normal 1 0 0
    outer loop
      vertex 27 9.49792 9.29792
      vertex 27 9.2865 9.55553
      vertex 27 2.5 -5.55112e-16
    endloop
  endfacet
  facet normal 1 0 0
    outer loop
      vertex 27 9.12941 9.84944
      vertex 27 9.03266 10.1683
      vertex 27 1.5 21
    endloop
  endfacet
  facet normal 1 0 0
    outer loop
      vertex 27 9.75553 11.9135
      vertex 27 10.0494 12.0706
      vertex 27 19.5 21
    endloop
  endfacet
  facet normal 1 0 0
    outer loop
      vertex 27 9 10.5
      vertex 27 1.5 21
      vertex 27 9.03266 10.1683
    endloop
  endfacet
  facet normal 1 0 0
    outer loop
      vertex 27 11.6445 11.9135
      vertex 27 11.9021 11.7021
      vertex 27 19.5 21
    endloop
  endfacet
  facet normal 1 0 0
    outer loop
      vertex 27 9.03266 10.8317
      vertex 27 1.5 21
      vertex 27 9 10.5
    endloop
  endfacet
  facet normal 1 0 0
    outer loop
      vertex 27 9.12941 11.1506
      vertex 27 1.5 21
      vertex 27 9.03266 10.8317
    endloop
  endfacet
  facet normal 1 0 0
    outer loop
      vertex 27 9.2865 11.4445
      vertex 27 1.5 21
      vertex 27 9.12941 11.1506
    endloop
  endfacet
  facet normal 1 0 0
    outer loop
      vertex 27 9.49792 11.7021
      vertex 27 1.5 21
      vertex 27 9.2865 11.4445
    endloop
  endfacet
  facet normal 1 0 0
    outer loop
      vertex 27 19.5 21
      vertex 27 1.5 21
      vertex 27 9.49792 11.7021
    endloop
  endfacet
  facet normal 1 0 0
    outer loop
      vertex 27 10.0494 12.0706
      vertex 27 10.3683 12.1673
      vertex 27 19.5 21
    endloop
  endfacet
  facet normal 1 0 0
    outer loop
      vertex 27 19.5 21
      vertex 27 9.49792 11.7021
      vertex 27 9.75553 11.9135
    endloop
  endfacet
  facet normal 1 0 0
    outer loop
      vertex 27 10.3683 12.1673
      vertex 27 10.7 12.2
      vertex 27 19.5 21
    endloop
  endfacet
  facet normal 1 0 0
    outer loop
      vertex 27 19.5 21
      vertex 27 11.0317 12.1673
      vertex 27 11.3506 12.0706
    endloop
  endfacet
  facet normal 1 0 0
    outer loop
      vertex 27 11.9021 11.7021
      vertex 27 12.1135 11.4445
      vertex 27 19.5 21
    endloop
  endfacet
  facet normal 1 0 0
    outer loop
      vertex 27 19.5 21
      vertex 27 11.3506 12.0706
      vertex 27 11.6445 11.9135
    endloop
  endfacet
  facet normal 1 0 0
    outer loop
      vertex 27 9.2865 9.55553
      vertex 27 9.12941 9.84944
      vertex 27 1.5 21
    endloop
  endfacet
  facet normal 1 0 0
    outer loop
      vertex 27 12.2706 11.1506
      vertex 27 12.3673 10.8317
      vertex 27 19.5 21
    endloop
  endfacet
  facet normal 1 0 0
    outer loop
      vertex 27 12.3673 10.8317
      vertex 27 12.4 10.5
      vertex 27 19.5 21
    endloop
  endfacet
  facet normal 1 0 0
    outer loop
      vertex 27 12.1135 9.55553
      vertex 27 11.9021 9.29792
      vertex 27 6.5 -1.44329e-15
    endloop
  endfacet
  facet normal 1 0 0
    outer loop
      vertex 27 11.6445 9.0865
      vertex 27 11.3506 8.9294
      vertex 27 6.5 -1.44329e-15
    endloop
  endfacet
  facet normal 1 0 0
    outer loop
      vertex 27 19.5 21
      vertex 27 12.4 10.5
      vertex 27 12.3673 10.1683
    endloop
  endfacet
  facet normal 1 0 0
    outer loop
      vertex 27 11.9021 9.29792
      vertex 27 11.6445 9.0865
      vertex 27 6.5 -1.44329e-15
    endloop
  endfacet
  facet normal 1 0 0
    outer loop
      vertex 27 19.5 21
      vertex 27 12.3673 10.1683
      vertex 27 12.2706 9.84944
    endloop
  endfacet
  facet normal 1 0 0
    outer loop
      vertex 27 19.5 21
      vertex 27 12.1135 9.55553
      vertex 27 6.5 -1.44329e-15
    endloop
  endfacet
  facet normal 1 0 0
    outer loop
      vertex 27 19.5 21
      vertex 27 12.2706 9.84944
      vertex 27 12.1135 9.55553
    endloop
  endfacet
  facet normal 1 0 0
    outer loop
      vertex 27 12.1135 11.4445
      vertex 27 12.2706 11.1506
      vertex 27 19.5 21
    endloop
  endfacet
  facet normal 1 0 0
    outer loop
      vertex 27 10.0494 8.9294
      vertex 27 9.75553 9.0865
      vertex 27 2.5 -5.55112e-16
    endloop
  endfacet
  facet normal 0.995185 -0.0980179 4.35287e-17
    outer loop
      vertex -16.7164 2.84141 -7.06727e-16
      vertex -16.7164 2.84141 8
      vertex -16.75 2.5 8
    endloop
  endfacet
  facet normal 0.995185 -0.0980179 4.35287e-17
    outer loop
      vertex -16.75 2.5 -5.55112e-16
      vertex -16.7164 2.84141 -7.06727e-16
      vertex -16.75 2.5 8
    endloop
  endfacet
  facet normal 0.95694 -0.290284 1.28912e-16
    outer loop
      vertex -16.6168 3.1697 -8.52516e-16
      vertex -16.6168 3.1697 8
      vertex -16.7164 2.84141 8
    endloop
  endfacet
  facet normal 0.95694 -0.290284 1.28912e-16
    outer loop
      vertex -16.7164 2.84141 -7.06727e-16
      vertex -16.6168 3.1697 -8.52516e-16
      vertex -16.7164 2.84141 8
    endloop
  endfacet
  facet normal 0.881922 -0.471396 2.09342e-16
    outer loop
      vertex -16.4551 3.47225 -9.86876e-16
      vertex -16.4551 3.47225 8
      vertex -16.6168 3.1697 8
    endloop
  endfacet
  facet normal 0.881922 -0.471396 2.09342e-16
    outer loop
      vertex -16.6168 3.1697 -8.52516e-16
      vertex -16.4551 3.47225 -9.86876e-16
      vertex -16.6168 3.1697 8
    endloop
  endfacet
  facet normal 0.77301 -0.634393 2.81727e-16
    outer loop
      vertex -16.2374 3.73744 -1.10464e-15
      vertex -16.2374 3.73744 8
      vertex -16.4551 3.47225 8
    endloop
  endfacet
  facet normal 0.77301 -0.634393 2.81727e-16
    outer loop
      vertex -16.4551 3.47225 -9.86876e-16
      vertex -16.2374 3.73744 -1.10464e-15
      vertex -16.4551 3.47225 8
    endloop
  endfacet
  facet normal 0.634393 -0.77301 3.43286e-16
    outer loop
      vertex -15.9722 3.95507 -1.20129e-15
      vertex -15.9722 3.95507 8
      vertex -16.2374 3.73744 8
    endloop
  endfacet
  facet normal 0.634393 -0.77301 3.43286e-16
    outer loop
      vertex -16.2374 3.73744 -1.10464e-15
      vertex -15.9722 3.95507 -1.20129e-15
      vertex -16.2374 3.73744 8
    endloop
  endfacet
  facet normal 0.471396 -0.881922 3.91652e-16
    outer loop
      vertex -15.6697 4.11679 -1.27311e-15
      vertex -15.6697 4.11679 8
      vertex -15.9722 3.95507 8
    endloop
  endfacet
  facet normal 0.471396 -0.881922 3.91652e-16
    outer loop
      vertex -15.9722 3.95507 -1.20129e-15
      vertex -15.6697 4.11679 -1.27311e-15
      vertex -15.9722 3.95507 8
    endloop
  endfacet
  facet normal 0.290284 -0.95694 4.24967e-16
    outer loop
      vertex -15.3414 4.21637 -1.31733e-15
      vertex -15.3414 4.21637 8
      vertex -15.6697 4.11679 8
    endloop
  endfacet
  facet normal 0.290284 -0.95694 4.24967e-16
    outer loop
      vertex -15.6697 4.11679 -1.27311e-15
      vertex -15.3414 4.21637 -1.31733e-15
      vertex -15.6697 4.11679 8
    endloop
  endfacet
  facet normal 0.0980179 -0.995185 4.41951e-16
    outer loop
      vertex -15 4.25 -1.33227e-15
      vertex -15 4.25 8
      vertex -15.3414 4.21637 8
    endloop
  endfacet
  facet normal 0.0980179 -0.995185 4.41951e-16
    outer loop
      vertex -15.3414 4.21637 -1.31733e-15
      vertex -15 4.25 -1.33227e-15
      vertex -15.3414 4.21637 8
    endloop
  endfacet
  facet normal 0 -1 4.44089e-16
    outer loop
      vertex 15 4.25 -1.33227e-15
      vertex 15 4.25 8
      vertex -15 4.25 8
    endloop
  endfacet
  facet normal 0 -1 4.44089e-16
    outer loop
      vertex -15 4.25 -1.33227e-15
      vertex 15 4.25 -1.33227e-15
      vertex -15 4.25 8
    endloop
  endfacet
  facet normal -0.0980179 -0.995185 4.41951e-16
    outer loop
      vertex 15.3414 4.21637 -1.31733e-15
      vertex 15.3414 4.21637 8
      vertex 15 4.25 8
    endloop
  endfacet
  facet normal -0.0980179 -0.995185 4.41951e-16
    outer loop
      vertex 15 4.25 -1.33227e-15
      vertex 15.3414 4.21637 -1.31733e-15
      vertex 15 4.25 8
    endloop
  endfacet
  facet normal -0.290284 -0.95694 4.24967e-16
    outer loop
      vertex 15.6697 4.11679 -1.27311e-15
      vertex 15.6697 4.11679 8
      vertex 15.3414 4.21637 8
    endloop
  endfacet
  facet normal -0.290284 -0.95694 4.24967e-16
    outer loop
      vertex 15.3414 4.21637 -1.31733e-15
      vertex 15.6697 4.11679 -1.27311e-15
      vertex 15.3414 4.21637 8
    endloop
  endfacet
  facet normal -0.471396 -0.881922 3.91652e-16
    outer loop
      vertex 15.9722 3.95507 -1.20129e-15
      vertex 15.9722 3.95507 8
      vertex 15.6697 4.11679 8
    endloop
  endfacet
  facet normal -0.471396 -0.881922 3.91652e-16
    outer loop
      vertex 15.6697 4.11679 -1.27311e-15
      vertex 15.9722 3.95507 -1.20129e-15
      vertex 15.6697 4.11679 8
    endloop
  endfacet
  facet normal -0.634393 -0.77301 3.43286e-16
    outer loop
      vertex 16.2374 3.73744 -1.10464e-15
      vertex 16.2374 3.73744 8
      vertex 15.9722 3.95507 8
    endloop
  endfacet
  facet normal -0.634393 -0.77301 3.43286e-16
    outer loop
      vertex 15.9722 3.95507 -1.20129e-15
      vertex 16.2374 3.73744 -1.10464e-15
      vertex 15.9722 3.95507 8
    endloop
  endfacet
  facet normal -0.77301 -0.634393 2.81727e-16
    outer loop
      vertex 16.4551 3.47225 8
      vertex 16.2374 3.73744 8
      vertex 16.4551 3.47225 -9.86876e-16
    endloop
  endfacet
  facet normal -0.77301 -0.634393 2.81727e-16
    outer loop
      vertex 16.4551 3.47225 -9.86876e-16
      vertex 16.2374 3.73744 8
      vertex 16.2374 3.73744 -1.10464e-15
    endloop
  endfacet
  facet normal -0.881922 -0.471396 2.09342e-16
    outer loop
      vertex 16.6168 3.1697 8
      vertex 16.4551 3.47225 8
      vertex 16.6168 3.1697 -8.52516e-16
    endloop
  endfacet
  facet normal -0.881922 -0.471396 2.09342e-16
    outer loop
      vertex 16.6168 3.1697 -8.52516e-16
      vertex 16.4551 3.47225 8
      vertex 16.4551 3.47225 -9.86876e-16
    endloop
  endfacet
  facet normal -0.95694 -0.290284 1.28912e-16
    outer loop
      vertex 16.7164 2.84141 8
      vertex 16.6168 3.1697 8
      vertex 16.7164 2.84141 -7.06727e-16
    endloop
  endfacet
  facet normal -0.95694 -0.290284 1.28912e-16
    outer loop
      vertex 16.7164 2.84141 -7.06727e-16
      vertex 16.6168 3.1697 8
      vertex 16.6168 3.1697 -8.52516e-16
    endloop
  endfacet
  facet normal -0.995185 -0.0980179 4.35287e-17
    outer loop
      vertex 16.75 2.5 8
      vertex 16.7164 2.84141 8
      vertex 16.75 2.5 -5.55112e-16
    endloop
  endfacet
  facet normal -0.995185 -0.0980179 4.35287e-17
    outer loop
      vertex 16.75 2.5 -5.55112e-16
      vertex 16.7164 2.84141 8
      vertex 16.7164 2.84141 -7.06727e-16
    endloop
  endfacet
  facet normal -0.995185 0.0980179 -4.35287e-17
    outer loop
      vertex 16.75 2.5 8
      vertex 16.75 2.5 -5.55112e-16
      vertex 16.7164 2.15859 8
    endloop
  endfacet
  facet normal -0.995185 0.0980179 -4.35287e-17
    outer loop
      vertex 16.7164 2.15859 8
      vertex 16.75 2.5 -5.55112e-16
      vertex 16.7164 2.15859 -4.03496e-16
    endloop
  endfacet
  facet normal -0.95694 0.290284 -1.28912e-16
    outer loop
      vertex 16.7164 2.15859 8
      vertex 16.7164 2.15859 -4.03496e-16
      vertex 16.6168 1.8303 8
    endloop
  endfacet
  facet normal -0.95694 0.290284 -1.28912e-16
    outer loop
      vertex 16.6168 1.8303 8
      vertex 16.7164 2.15859 -4.03496e-16
      vertex 16.6168 1.8303 -2.57707e-16
    endloop
  endfacet
  facet normal -0.881922 0.471396 -2.09342e-16
    outer loop
      vertex 16.6168 1.8303 8
      vertex 16.6168 1.8303 -2.57707e-16
      vertex 16.4551 1.52775 8
    endloop
  endfacet
  facet normal -0.881922 0.471396 -2.09342e-16
    outer loop
      vertex 16.4551 1.52775 8
      vertex 16.6168 1.8303 -2.57707e-16
      vertex 16.4551 1.52775 -1.23347e-16
    endloop
  endfacet
  facet normal -0.77301 0.634393 -2.81727e-16
    outer loop
      vertex 16.4551 1.52775 8
      vertex 16.4551 1.52775 -1.23347e-16
      vertex 16.2374 1.26256 8
    endloop
  endfacet
  facet normal -0.77301 0.634393 -2.81727e-16
    outer loop
      vertex 16.2374 1.26256 8
      vertex 16.4551 1.52775 -1.23347e-16
      vertex 16.2374 1.26256 -5.57909e-18
    endloop
  endfacet
  facet normal -0.634393 0.77301 -3.43286e-16
    outer loop
      vertex 16.2374 1.26256 8
      vertex 16.2374 1.26256 -5.57909e-18
      vertex 15.9722 1.04493 8
    endloop
  endfacet
  facet normal -0.634393 0.77301 -3.43286e-16
    outer loop
      vertex 15.9722 1.04493 8
      vertex 16.2374 1.26256 -5.57909e-18
      vertex 15.9722 1.04493 9.10703e-17
    endloop
  endfacet
  facet normal -0.471396 0.881922 -3.91652e-16
    outer loop
      vertex 15.9722 1.04493 8
      vertex 15.9722 1.04493 9.10703e-17
      vertex 15.6697 0.883211 8
    endloop
  endfacet
  facet normal -0.471396 0.881922 -3.91652e-16
    outer loop
      vertex 15.6697 0.883211 8
      vertex 15.9722 1.04493 9.10703e-17
      vertex 15.6697 0.883211 1.62887e-16
    endloop
  endfacet
  facet normal -0.290284 0.95694 -4.24967e-16
    outer loop
      vertex 15.6697 0.883211 8
      vertex 15.6697 0.883211 1.62887e-16
      vertex 15.3414 0.783626 8
    endloop
  endfacet
  facet normal -0.290284 0.95694 -4.24967e-16
    outer loop
      vertex 15.3414 0.783626 8
      vertex 15.6697 0.883211 1.62887e-16
      vertex 15.3414 0.783626 2.07112e-16
    endloop
  endfacet
  facet normal -0.0980179 0.995185 -4.41951e-16
    outer loop
      vertex 15.3414 0.783626 8
      vertex 15.3414 0.783626 2.07112e-16
      vertex 15 0.75 8
    endloop
  endfacet
  facet normal -0.0980179 0.995185 -4.41951e-16
    outer loop
      vertex 15 0.75 8
      vertex 15.3414 0.783626 2.07112e-16
      vertex 15 0.75 2.22045e-16
    endloop
  endfacet
  facet normal 0 1 -4.44089e-16
    outer loop
      vertex 15 0.75 8
      vertex 15 0.75 2.22045e-16
      vertex -15 0.75 8
    endloop
  endfacet
  facet normal 0 1 -4.44089e-16
    outer loop
      vertex -15 0.75 8
      vertex 15 0.75 2.22045e-16
      vertex -15 0.75 2.22045e-16
    endloop
  endfacet
  facet normal 0.0980179 0.995185 -4.41951e-16
    outer loop
      vertex -15 0.75 8
      vertex -15 0.75 2.22045e-16
      vertex -15.3414 0.783626 8
    endloop
  endfacet
  facet normal 0.0980179 0.995185 -4.41951e-16
    outer loop
      vertex -15.3414 0.783626 8
      vertex -15 0.75 2.22045e-16
      vertex -15.3414 0.783626 2.07112e-16
    endloop
  endfacet
  facet normal 0.290284 0.95694 -4.24967e-16
    outer loop
      vertex -15.3414 0.783626 8
      vertex -15.3414 0.783626 2.07112e-16
      vertex -15.6697 0.883211 8
    endloop
  endfacet
  facet normal 0.290284 0.95694 -4.24967e-16
    outer loop
      vertex -15.6697 0.883211 8
      vertex -15.3414 0.783626 2.07112e-16
      vertex -15.6697 0.883211 1.62887e-16
    endloop
  endfacet
  facet normal 0.471396 0.881922 -3.91652e-16
    outer loop
      vertex -15.6697 0.883211 8
      vertex -15.6697 0.883211 1.62887e-16
      vertex -15.9722 1.04493 8
    endloop
  endfacet
  facet normal 0.471396 0.881922 -3.91652e-16
    outer loop
      vertex -15.9722 1.04493 8
      vertex -15.6697 0.883211 1.62887e-16
      vertex -15.9722 1.04493 9.10703e-17
    endloop
  endfacet
  facet normal 0.634393 0.77301 -3.43286e-16
    outer loop
      vertex -15.9722 1.04493 8
      vertex -15.9722 1.04493 9.10703e-17
      vertex -16.2374 1.26256 8
    endloop
  endfacet
  facet normal 0.634393 0.77301 -3.43286e-16
    outer loop
      vertex -16.2374 1.26256 8
      vertex -15.9722 1.04493 9.10703e-17
      vertex -16.2374 1.26256 -5.57909e-18
    endloop
  endfacet
  facet normal 0.77301 0.634393 -2.81727e-16
    outer loop
      vertex -16.4551 1.52775 8
      vertex -16.2374 1.26256 8
      vertex -16.2374 1.26256 -5.57909e-18
    endloop
  endfacet
  facet normal 0.77301 0.634393 -2.81727e-16
    outer loop
      vertex -16.4551 1.52775 -1.23347e-16
      vertex -16.4551 1.52775 8
      vertex -16.2374 1.26256 -5.57909e-18
    endloop
  endfacet
  facet normal 0.881922 0.471396 -2.09342e-16
    outer loop
      vertex -16.6168 1.8303 8
      vertex -16.4551 1.52775 8
      vertex -16.4551 1.52775 -1.23347e-16
    endloop
  endfacet
  facet normal 0.881922 0.471396 -2.09342e-16
    outer loop
      vertex -16.6168 1.8303 -2.57707e-16
      vertex -16.6168 1.8303 8
      vertex -16.4551 1.52775 -1.23347e-16
    endloop
  endfacet
  facet normal 0.95694 0.290284 -1.28912e-16
    outer loop
      vertex -16.7164 2.15859 8
      vertex -16.6168 1.8303 8
      vertex -16.6168 1.8303 -2.57707e-16
    endloop
  endfacet
  facet normal 0.95694 0.290284 -1.28912e-16
    outer loop
      vertex -16.7164 2.15859 -4.03496e-16
      vertex -16.7164 2.15859 8
      vertex -16.6168 1.8303 -2.57707e-16
    endloop
  endfacet
  facet normal 0.995185 0.0980179 -4.35287e-17
    outer loop
      vertex -16.75 2.5 8
      vertex -16.7164 2.15859 8
      vertex -16.7164 2.15859 -4.03496e-16
    endloop
  endfacet
  facet normal 0.995185 0.0980179 -4.35287e-17
    outer loop
      vertex -16.75 2.5 -5.55112e-16
      vertex -16.75 2.5 8
      vertex -16.7164 2.15859 -4.03496e-16
    endloop
  endfacet
  facet normal 0 -2.22045e-16 -1
    outer loop
      vertex -11.6804 6.5 -1.44329e-15
      vertex 24 16.0605 -3.56616e-15
      vertex 27 6.5 -1.44329e-15
    endloop
  endfacet
  facet normal 0 -2.22045e-16 -1
    outer loop
      vertex 27 6.5 -1.44329e-15
      vertex 24 16.0605 -3.56616e-15
      vertex 24 19.5 -4.32987e-15
    endloop
  endfacet
  facet normal 0 -2.22045e-16 -1
    outer loop
      vertex 27 6.5 -1.44329e-15
      vertex 24 19.5 -4.32987e-15
      vertex 27 19.5 -4.32987e-15
    endloop
  endfacet
  facet normal -0.258819 0.965926 -2.14479e-16
    outer loop
      vertex 24 16.0605 5
      vertex 24 16.0605 -3.56616e-15
      vertex -11.6804 6.5 5
    endloop
  endfacet
  facet normal -0.258819 0.965926 -2.14479e-16
    outer loop
      vertex -11.6804 6.5 5
      vertex 24 16.0605 -3.56616e-15
      vertex -11.6804 6.5 -1.44329e-15
    endloop
  endfacet
  facet normal 0 2.22045e-16 1
    outer loop
      vertex 24 16.0605 5
      vertex -11.6804 6.5 5
      vertex 24 6.5 5
    endloop
  endfacet
  facet normal -1 0 0
    outer loop
      vertex 24 19.5 -4.32987e-15
      vertex 24 16.0605 -3.56616e-15
      vertex 24 19.5 21
    endloop
  endfacet
  facet normal -1 0 0
    outer loop
      vertex 24 19.5 21
      vertex 24 16.0605 -3.56616e-15
      vertex 24 16.0605 5
    endloop
  endfacet
  facet normal -1 0 0
    outer loop
      vertex 24 10.7 8.8
      vertex 24 16.0605 5
      vertex 24 6.5 5
    endloop
  endfacet
  facet normal -1 0 0
    outer loop
      vertex 24 9.2865 9.55553
      vertex 24 6.5 5
      vertex 24 6.5 8
    endloop
  endfacet
  facet normal -1 0 0
    outer loop
      vertex 24 9.2865 11.4445
      vertex 24 6.5 8
      vertex 24 -1.5 8
    endloop
  endfacet
  facet normal -1 0 0
    outer loop
      vertex 24 19.5 21
      vertex 24 -1.5 8
      vertex 24 -1.5 21
    endloop
  endfacet
  facet normal -1 0 0
    outer loop
      vertex 24 11.0317 8.83266
      vertex 24 16.0605 5
      vertex 24 10.7 8.8
    endloop
  endfacet
  facet normal -1 0 0
    outer loop
      vertex 24 10.3683 8.83266
      vertex 24 10.7 8.8
      vertex 24 6.5 5
    endloop
  endfacet
  facet normal -1 0 0
    outer loop
      vertex 24 11.3506 8.9294
      vertex 24 16.0605 5
      vertex 24 11.0317 8.83266
    endloop
  endfacet
  facet normal -1 0 0
    outer loop
      vertex 24 11.6445 9.0865
      vertex 24 16.0605 5
      vertex 24 11.3506 8.9294
    endloop
  endfacet
  facet normal -1 0 0
    outer loop
      vertex 24 11.9021 9.29792
      vertex 24 16.0605 5
      vertex 24 11.6445 9.0865
    endloop
  endfacet
  facet normal -1 0 0
    outer loop
      vertex 24 12.1135 9.55553
      vertex 24 16.0605 5
      vertex 24 11.9021 9.29792
    endloop
  endfacet
  facet normal -1 0 0
    outer loop
      vertex 24 19.5 21
      vertex 24 16.0605 5
      vertex 24 12.1135 9.55553
    endloop
  endfacet
  facet normal -1 0 0
    outer loop
      vertex 24 19.5 21
      vertex 24 12.1135 9.55553
      vertex 24 12.2706 9.84944
    endloop
  endfacet
  facet normal -1 0 0
    outer loop
      vertex 24 12.4 10.5
      vertex 24 19.5 21
      vertex 24 12.3673 10.1683
    endloop
  endfacet
  facet normal -1 0 0
    outer loop
      vertex 24 12.3673 10.8317
      vertex 24 19.5 21
      vertex 24 12.4 10.5
    endloop
  endfacet
  facet normal -1 0 0
    outer loop
      vertex 24 12.2706 11.1506
      vertex 24 19.5 21
      vertex 24 12.3673 10.8317
    endloop
  endfacet
  facet normal -1 0 0
    outer loop
      vertex 24 11.9021 11.7021
      vertex 24 19.5 21
      vertex 24 12.1135 11.4445
    endloop
  endfacet
  facet normal -1 0 0
    outer loop
      vertex 24 19.5 21
      vertex 24 12.2706 11.1506
      vertex 24 12.1135 11.4445
    endloop
  endfacet
  facet normal -1 0 0
    outer loop
      vertex 24 10.7 12.2
      vertex 24 19.5 21
      vertex 24 11.0317 12.1673
    endloop
  endfacet
  facet normal -1 0 0
    outer loop
      vertex 24 19.5 21
      vertex 24 11.9021 11.7021
      vertex 24 11.6445 11.9135
    endloop
  endfacet
  facet normal -1 0 0
    outer loop
      vertex 24 19.5 21
      vertex 24 11.6445 11.9135
      vertex 24 11.3506 12.0706
    endloop
  endfacet
  facet normal -1 0 0
    outer loop
      vertex 24 19.5 21
      vertex 24 11.3506 12.0706
      vertex 24 11.0317 12.1673
    endloop
  endfacet
  facet normal -1 0 0
    outer loop
      vertex 24 9.75553 11.9135
      vertex 24 -1.5 8
      vertex 24 10.0494 12.0706
    endloop
  endfacet
  facet normal -1 0 0
    outer loop
      vertex 24 19.5 21
      vertex 24 10.7 12.2
      vertex 24 10.3683 12.1673
    endloop
  endfacet
  facet normal -1 0 0
    outer loop
      vertex 24 19.5 21
      vertex 24 10.3683 12.1673
      vertex 24 10.0494 12.0706
    endloop
  endfacet
  facet normal -1 0 0
    outer loop
      vertex 24 19.5 21
      vertex 24 10.0494 12.0706
      vertex 24 -1.5 8
    endloop
  endfacet
  facet normal -1 0 0
    outer loop
      vertex 24 9.49792 11.7021
      vertex 24 -1.5 8
      vertex 24 9.75553 11.9135
    endloop
  endfacet
  facet normal -1 0 0
    outer loop
      vertex 24 9.03267 10.1683
      vertex 24 6.5 8
      vertex 24 9 10.5
    endloop
  endfacet
  facet normal -1 0 0
    outer loop
      vertex 24 9.12941 11.1506
      vertex 24 6.5 8
      vertex 24 9.2865 11.4445
    endloop
  endfacet
  facet normal -1 0 0
    outer loop
      vertex 24 9.49792 11.7021
      vertex 24 9.2865 11.4445
      vertex 24 -1.5 8
    endloop
  endfacet
  facet normal -1 0 0
    outer loop
      vertex 24 9.03267 10.8317
      vertex 24 6.5 8
      vertex 24 9.12941 11.1506
    endloop
  endfacet
  facet normal -1 0 0
    outer loop
      vertex 24 9 10.5
      vertex 24 6.5 8
      vertex 24 9.03267 10.8317
    endloop
  endfacet
  facet normal -1 0 0
    outer loop
      vertex 24 9.12941 9.84944
      vertex 24 6.5 8
      vertex 24 9.03267 10.1683
    endloop
  endfacet
  facet normal -1 0 0
    outer loop
      vertex 24 9.2865 9.55553
      vertex 24 6.5 8
      vertex 24 9.12941 9.84944
    endloop
  endfacet
  facet normal -1 0 0
    outer loop
      vertex 24 9.49792 9.29792
      vertex 24 6.5 5
      vertex 24 9.2865 9.55553
    endloop
  endfacet
  facet normal -1 0 0
    outer loop
      vertex 24 10.0494 8.9294
      vertex 24 6.5 5
      vertex 24 9.75553 9.0865
    endloop
  endfacet
  facet normal -1 0 0
    outer loop
      vertex 24 9.75553 9.0865
      vertex 24 6.5 5
      vertex 24 9.49792 9.29792
    endloop
  endfacet
  facet normal -1 0 0
    outer loop
      vertex 24 10.3683 8.83266
      vertex 24 6.5 5
      vertex 24 10.0494 8.9294
    endloop
  endfacet
  facet normal -1 0 0
    outer loop
      vertex 24 12.3673 10.1683
      vertex 24 19.5 21
      vertex 24 12.2706 9.84944
    endloop
  endfacet
  facet normal 0 2.22045e-16 1
    outer loop
      vertex 27 19.5 21
      vertex 24 19.5 21
      vertex 24 -1.5 21
    endloop
  endfacet
  facet normal 0 2.22045e-16 1
    outer loop
      vertex 33.2 5.5 21
      vertex 30.2 5.5 21
      vertex 33.2 -1.5 21
    endloop
  endfacet
  facet normal 0 2.22045e-16 1
    outer loop
      vertex 33.2 -1.5 21
      vertex 30.2 1.5 21
      vertex 24 -1.5 21
    endloop
  endfacet
  facet normal 0 2.22045e-16 1
    outer loop
      vertex 33.2 -1.5 21
      vertex 30.2 5.5 21
      vertex 30.2 1.5 21
    endloop
  endfacet
  facet normal 0 2.22045e-16 1
    outer loop
      vertex 30.2 1.5 21
      vertex 27 1.5 21
      vertex 24 -1.5 21
    endloop
  endfacet
  facet normal 0 2.22045e-16 1
    outer loop
      vertex 27 1.5 21
      vertex 27 19.5 21
      vertex 24 -1.5 21
    endloop
  endfacet
  facet normal 1 0 0
    outer loop
      vertex 33.2 -1.5 3.33067e-16
      vertex 33.2 5.5 -1.22125e-15
      vertex 33.2 5.5 21
    endloop
  endfacet
  facet normal 1 0 0
    outer loop
      vertex 33.2 -1.5 21
      vertex 33.2 -1.5 3.33067e-16
      vertex 33.2 5.5 21
    endloop
  endfacet
  facet normal 0 1 -2.22045e-16
    outer loop
      vertex 30.2 5.5 -1.22125e-15
      vertex 30.2 5.5 21
      vertex 33.2 5.5 -1.22125e-15
    endloop
  endfacet
  facet normal 0 1 -2.22045e-16
    outer loop
      vertex 33.2 5.5 -1.22125e-15
      vertex 30.2 5.5 21
      vertex 33.2 5.5 21
    endloop
  endfacet
  facet normal -1 0 0
    outer loop
      vertex 30.2 5.5 -1.22125e-15
      vertex 30.2 1.5 -3.33067e-16
      vertex 30.2 5.5 21
    endloop
  endfacet
  facet normal -1 0 0
    outer loop
      vertex 30.2 5.5 21
      vertex 30.2 1.5 -3.33067e-16
      vertex 30.2 1.5 21
    endloop
  endfacet
  facet normal 0 1 -2.22045e-16
    outer loop
      vertex 27 1.5 -3.33067e-16
      vertex 27 1.5 21
      vertex 30.2 1.5 -3.33067e-16
    endloop
  endfacet
  facet normal 0 1 -2.22045e-16
    outer loop
      vertex 30.2 1.5 -3.33067e-16
      vertex 27 1.5 21
      vertex 30.2 1.5 21
    endloop
  endfacet
  facet normal 0 1 -2.22045e-16
    outer loop
      vertex 24 19.5 -4.32987e-15
      vertex 24 19.5 21
      vertex 27 19.5 -4.32987e-15
    endloop
  endfacet
  facet normal 0 1 -2.22045e-16
    outer loop
      vertex 27 19.5 -4.32987e-15
      vertex 24 19.5 21
      vertex 27 19.5 21
    endloop
  endfacet
  facet normal -6.44563e-17 -0.290286 0.95694
    outer loop
      vertex 27 11.0317 8.83266
      vertex 27 11.3506 8.9294
      vertex 24 11.3506 8.9294
    endloop
  endfacet
  facet normal -6.44563e-17 -0.290286 0.95694
    outer loop
      vertex 24 11.0317 8.83266
      vertex 27 11.0317 8.83266
      vertex 24 11.3506 8.9294
    endloop
  endfacet
  facet normal -2.17641e-17 -0.0980169 0.995185
    outer loop
      vertex 27 10.7 8.8
      vertex 27 11.0317 8.83266
      vertex 24 11.0317 8.83266
    endloop
  endfacet
  facet normal -2.17641e-17 -0.0980169 0.995185
    outer loop
      vertex 24 10.7 8.8
      vertex 27 10.7 8.8
      vertex 24 11.0317 8.83266
    endloop
  endfacet
  facet normal -1.04671e-16 -0.471398 0.881921
    outer loop
      vertex 27 11.3506 8.9294
      vertex 27 11.6445 9.0865
      vertex 24 11.6445 9.0865
    endloop
  endfacet
  facet normal -1.04671e-16 -0.471398 0.881921
    outer loop
      vertex 24 11.3506 8.9294
      vertex 27 11.3506 8.9294
      vertex 24 11.6445 9.0865
    endloop
  endfacet
  facet normal -1.40863e-16 -0.634391 0.773013
    outer loop
      vertex 27 11.6445 9.0865
      vertex 27 11.9021 9.29792
      vertex 24 11.9021 9.29792
    endloop
  endfacet
  facet normal -1.40863e-16 -0.634391 0.773013
    outer loop
      vertex 24 11.6445 9.0865
      vertex 27 11.6445 9.0865
      vertex 24 11.9021 9.29792
    endloop
  endfacet
  facet normal -1.71643e-16 -0.773013 0.634391
    outer loop
      vertex 27 11.9021 9.29792
      vertex 27 12.1135 9.55553
      vertex 24 12.1135 9.55553
    endloop
  endfacet
  facet normal -1.71643e-16 -0.773013 0.634391
    outer loop
      vertex 24 11.9021 9.29792
      vertex 27 11.9021 9.29792
      vertex 24 12.1135 9.55553
    endloop
  endfacet
  facet normal -1.95826e-16 -0.881921 0.471398
    outer loop
      vertex 27 12.1135 9.55553
      vertex 27 12.2706 9.84944
      vertex 24 12.2706 9.84944
    endloop
  endfacet
  facet normal -1.95826e-16 -0.881921 0.471398
    outer loop
      vertex 24 12.1135 9.55553
      vertex 27 12.1135 9.55553
      vertex 24 12.2706 9.84944
    endloop
  endfacet
  facet normal -2.12483e-16 -0.95694 0.290286
    outer loop
      vertex 27 12.2706 9.84944
      vertex 27 12.3673 10.1683
      vertex 24 12.3673 10.1683
    endloop
  endfacet
  facet normal -2.12483e-16 -0.95694 0.290286
    outer loop
      vertex 24 12.2706 9.84944
      vertex 27 12.2706 9.84944
      vertex 24 12.3673 10.1683
    endloop
  endfacet
  facet normal -2.20975e-16 -0.995185 0.0980169
    outer loop
      vertex 27 12.3673 10.1683
      vertex 27 12.4 10.5
      vertex 24 12.4 10.5
    endloop
  endfacet
  facet normal -2.20975e-16 -0.995185 0.0980169
    outer loop
      vertex 24 12.3673 10.1683
      vertex 27 12.3673 10.1683
      vertex 24 12.4 10.5
    endloop
  endfacet
  facet normal -2.20975e-16 -0.995185 -0.0980169
    outer loop
      vertex 27 12.4 10.5
      vertex 27 12.3673 10.8317
      vertex 24 12.3673 10.8317
    endloop
  endfacet
  facet normal -2.20975e-16 -0.995185 -0.0980169
    outer loop
      vertex 24 12.4 10.5
      vertex 27 12.4 10.5
      vertex 24 12.3673 10.8317
    endloop
  endfacet
  facet normal -2.12483e-16 -0.95694 -0.290286
    outer loop
      vertex 27 12.3673 10.8317
      vertex 27 12.2706 11.1506
      vertex 24 12.2706 11.1506
    endloop
  endfacet
  facet normal -2.12483e-16 -0.95694 -0.290286
    outer loop
      vertex 24 12.3673 10.8317
      vertex 27 12.3673 10.8317
      vertex 24 12.2706 11.1506
    endloop
  endfacet
  facet normal -1.95826e-16 -0.881921 -0.471398
    outer loop
      vertex 27 12.2706 11.1506
      vertex 27 12.1135 11.4445
      vertex 24 12.1135 11.4445
    endloop
  endfacet
  facet normal -1.95826e-16 -0.881921 -0.471398
    outer loop
      vertex 24 12.2706 11.1506
      vertex 27 12.2706 11.1506
      vertex 24 12.1135 11.4445
    endloop
  endfacet
  facet normal -1.71643e-16 -0.773013 -0.634391
    outer loop
      vertex 27 12.1135 11.4445
      vertex 27 11.9021 11.7021
      vertex 24 11.9021 11.7021
    endloop
  endfacet
  facet normal -1.71643e-16 -0.773013 -0.634391
    outer loop
      vertex 24 12.1135 11.4445
      vertex 27 12.1135 11.4445
      vertex 24 11.9021 11.7021
    endloop
  endfacet
  facet normal -1.40863e-16 -0.634391 -0.773013
    outer loop
      vertex 27 11.6445 11.9135
      vertex 24 11.6445 11.9135
      vertex 27 11.9021 11.7021
    endloop
  endfacet
  facet normal -1.40863e-16 -0.634391 -0.773013
    outer loop
      vertex 27 11.9021 11.7021
      vertex 24 11.6445 11.9135
      vertex 24 11.9021 11.7021
    endloop
  endfacet
  facet normal -1.04671e-16 -0.471398 -0.881921
    outer loop
      vertex 27 11.3506 12.0706
      vertex 24 11.3506 12.0706
      vertex 27 11.6445 11.9135
    endloop
  endfacet
  facet normal -1.04671e-16 -0.471398 -0.881921
    outer loop
      vertex 27 11.6445 11.9135
      vertex 24 11.3506 12.0706
      vertex 24 11.6445 11.9135
    endloop
  endfacet
  facet normal -6.44563e-17 -0.290286 -0.95694
    outer loop
      vertex 27 11.0317 12.1673
      vertex 24 11.0317 12.1673
      vertex 27 11.3506 12.0706
    endloop
  endfacet
  facet normal -6.44563e-17 -0.290286 -0.95694
    outer loop
      vertex 27 11.3506 12.0706
      vertex 24 11.0317 12.1673
      vertex 24 11.3506 12.0706
    endloop
  endfacet
  facet normal -2.17641e-17 -0.0980169 -0.995185
    outer loop
      vertex 27 10.7 12.2
      vertex 24 10.7 12.2
      vertex 27 11.0317 12.1673
    endloop
  endfacet
  facet normal -2.17641e-17 -0.0980169 -0.995185
    outer loop
      vertex 27 11.0317 12.1673
      vertex 24 10.7 12.2
      vertex 24 11.0317 12.1673
    endloop
  endfacet
  facet normal 2.17641e-17 0.0980169 -0.995185
    outer loop
      vertex 27 10.7 12.2
      vertex 27 10.3683 12.1673
      vertex 24 10.7 12.2
    endloop
  endfacet
  facet normal 2.17641e-17 0.0980169 -0.995185
    outer loop
      vertex 24 10.7 12.2
      vertex 27 10.3683 12.1673
      vertex 24 10.3683 12.1673
    endloop
  endfacet
  facet normal 6.44563e-17 0.290286 -0.95694
    outer loop
      vertex 27 10.3683 12.1673
      vertex 27 10.0494 12.0706
      vertex 24 10.3683 12.1673
    endloop
  endfacet
  facet normal 6.44563e-17 0.290286 -0.95694
    outer loop
      vertex 24 10.3683 12.1673
      vertex 27 10.0494 12.0706
      vertex 24 10.0494 12.0706
    endloop
  endfacet
  facet normal 1.04671e-16 0.471398 -0.881921
    outer loop
      vertex 27 10.0494 12.0706
      vertex 27 9.75553 11.9135
      vertex 24 10.0494 12.0706
    endloop
  endfacet
  facet normal 1.04671e-16 0.471398 -0.881921
    outer loop
      vertex 24 10.0494 12.0706
      vertex 27 9.75553 11.9135
      vertex 24 9.75553 11.9135
    endloop
  endfacet
  facet normal 1.40863e-16 0.634391 -0.773013
    outer loop
      vertex 27 9.75553 11.9135
      vertex 27 9.49792 11.7021
      vertex 24 9.75553 11.9135
    endloop
  endfacet
  facet normal 1.40863e-16 0.634391 -0.773013
    outer loop
      vertex 24 9.75553 11.9135
      vertex 27 9.49792 11.7021
      vertex 24 9.49792 11.7021
    endloop
  endfacet
  facet normal 1.71643e-16 0.773013 -0.634391
    outer loop
      vertex 27 9.49792 11.7021
      vertex 27 9.2865 11.4445
      vertex 24 9.49792 11.7021
    endloop
  endfacet
  facet normal 1.71643e-16 0.773013 -0.634391
    outer loop
      vertex 24 9.49792 11.7021
      vertex 27 9.2865 11.4445
      vertex 24 9.2865 11.4445
    endloop
  endfacet
  facet normal 1.95826e-16 0.881921 -0.471398
    outer loop
      vertex 27 9.2865 11.4445
      vertex 27 9.12941 11.1506
      vertex 24 9.2865 11.4445
    endloop
  endfacet
  facet normal 1.95826e-16 0.881921 -0.471398
    outer loop
      vertex 24 9.2865 11.4445
      vertex 27 9.12941 11.1506
      vertex 24 9.12941 11.1506
    endloop
  endfacet
  facet normal 2.12483e-16 0.95694 -0.290286
    outer loop
      vertex 27 9.12941 11.1506
      vertex 27 9.03266 10.8317
      vertex 24 9.12941 11.1506
    endloop
  endfacet
  facet normal 2.12483e-16 0.95694 -0.290286
    outer loop
      vertex 24 9.12941 11.1506
      vertex 27 9.03266 10.8317
      vertex 24 9.03267 10.8317
    endloop
  endfacet
  facet normal 2.20975e-16 0.995185 -0.0980169
    outer loop
      vertex 27 9.03266 10.8317
      vertex 27 9 10.5
      vertex 24 9.03267 10.8317
    endloop
  endfacet
  facet normal 2.20975e-16 0.995185 -0.0980169
    outer loop
      vertex 24 9.03267 10.8317
      vertex 27 9 10.5
      vertex 24 9 10.5
    endloop
  endfacet
  facet normal 2.20975e-16 0.995185 0.0980169
    outer loop
      vertex 27 9 10.5
      vertex 27 9.03266 10.1683
      vertex 24 9 10.5
    endloop
  endfacet
  facet normal 2.20975e-16 0.995185 0.0980169
    outer loop
      vertex 24 9 10.5
      vertex 27 9.03266 10.1683
      vertex 24 9.03267 10.1683
    endloop
  endfacet
  facet normal 2.12483e-16 0.95694 0.290286
    outer loop
      vertex 27 9.03266 10.1683
      vertex 27 9.12941 9.84944
      vertex 24 9.03267 10.1683
    endloop
  endfacet
  facet normal 2.12483e-16 0.95694 0.290286
    outer loop
      vertex 24 9.03267 10.1683
      vertex 27 9.12941 9.84944
      vertex 24 9.12941 9.84944
    endloop
  endfacet
  facet normal 1.95826e-16 0.881921 0.471398
    outer loop
      vertex 27 9.12941 9.84944
      vertex 27 9.2865 9.55553
      vertex 24 9.12941 9.84944
    endloop
  endfacet
  facet normal 1.95826e-16 0.881921 0.471398
    outer loop
      vertex 24 9.12941 9.84944
      vertex 27 9.2865 9.55553
      vertex 24 9.2865 9.55553
    endloop
  endfacet
  facet normal 1.71643e-16 0.773013 0.634391
    outer loop
      vertex 27 9.2865 9.55553
      vertex 27 9.49792 9.29792
      vertex 24 9.2865 9.55553
    endloop
  endfacet
  facet normal 1.71643e-16 0.773013 0.634391
    outer loop
      vertex 24 9.2865 9.55553
      vertex 27 9.49792 9.29792
      vertex 24 9.49792 9.29792
    endloop
  endfacet
  facet normal 1.40863e-16 0.634391 0.773013
    outer loop
      vertex 24 9.49792 9.29792
      vertex 27 9.49792 9.29792
      vertex 27 9.75553 9.0865
    endloop
  endfacet
  facet normal 1.40863e-16 0.634391 0.773013
    outer loop
      vertex 24 9.75553 9.0865
      vertex 24 9.49792 9.29792
      vertex 27 9.75553 9.0865
    endloop
  endfacet
  facet normal 1.04671e-16 0.471398 0.881921
    outer loop
      vertex 24 9.75553 9.0865
      vertex 27 9.75553 9.0865
      vertex 27 10.0494 8.9294
    endloop
  endfacet
  facet normal 1.04671e-16 0.471398 0.881921
    outer loop
      vertex 24 10.0494 8.9294
      vertex 24 9.75553 9.0865
      vertex 27 10.0494 8.9294
    endloop
  endfacet
  facet normal 6.44563e-17 0.290286 0.95694
    outer loop
      vertex 24 10.0494 8.9294
      vertex 27 10.0494 8.9294
      vertex 27 10.3683 8.83266
    endloop
  endfacet
  facet normal 6.44563e-17 0.290286 0.95694
    outer loop
      vertex 24 10.3683 8.83266
      vertex 24 10.0494 8.9294
      vertex 27 10.3683 8.83266
    endloop
  endfacet
  facet normal 2.17641e-17 0.0980169 0.995185
    outer loop
      vertex 24 10.3683 8.83266
      vertex 27 10.3683 8.83266
      vertex 27 10.7 8.8
    endloop
  endfacet
  facet normal 2.17641e-17 0.0980169 0.995185
    outer loop
      vertex 24 10.7 8.8
      vertex 24 10.3683 8.83266
      vertex 27 10.7 8.8
    endloop
  endfacet
endsolid OpenSCAD_Model
